<?xml version="1.0" encoding="UTF-8"?>
<svg width="1136px" height="945px" viewBox="0 0 1136 945" version="1.1" xmlns="http://www.w3.org/2000/svg" xmlns:xlink="http://www.w3.org/1999/xlink">
    <!-- Generator: Sketch 63.1 (92452) - https://sketch.com -->
    <title>overall</title>
    <desc>Created with Sketch.</desc>
    <defs>
        <linearGradient x1="50%" y1="0%" x2="50%" y2="100%" id="linearGradient-1">
            <stop stop-color="#F3DF94" offset="0%"></stop>
            <stop stop-color="#8CAAE9" offset="100%"></stop>
        </linearGradient>
        <linearGradient x1="50%" y1="67.885583%" x2="50%" y2="100%" id="linearGradient-2">
            <stop stop-color="#FAB6B6" offset="0%"></stop>
            <stop stop-color="#DEF0BF" offset="100%"></stop>
        </linearGradient>
        <linearGradient x1="50%" y1="0%" x2="50%" y2="100%" id="linearGradient-3">
            <stop stop-color="#F3DF94" offset="0%"></stop>
            <stop stop-color="#FAB6B6" offset="100%"></stop>
        </linearGradient>
        <linearGradient x1="50%" y1="0%" x2="50%" y2="100%" id="linearGradient-4">
            <stop stop-color="#FAB6B6" offset="0%"></stop>
            <stop stop-color="#F3DF94" offset="100%"></stop>
        </linearGradient>
        <linearGradient x1="50%" y1="10.7118174%" x2="50%" y2="27.2755547%" id="linearGradient-5">
            <stop stop-color="#474646" offset="0%"></stop>
            <stop stop-color="#B1ECF1" offset="100%"></stop>
        </linearGradient>
        <linearGradient x1="50%" y1="23.6550742%" x2="50%" y2="100%" id="linearGradient-6">
            <stop stop-color="#F3DF94" offset="0%"></stop>
            <stop stop-color="#8CAAE9" offset="100%"></stop>
        </linearGradient>
        <linearGradient x1="50%" y1="1.6745369%" x2="50%" y2="77.2808421%" id="linearGradient-7">
            <stop stop-color="#F3DF94" offset="0%"></stop>
            <stop stop-color="#8CAAE9" offset="19.0973266%"></stop>
            <stop stop-color="#8CAAE9" offset="54.8830337%"></stop>
            <stop stop-color="#5B77B3" offset="87.01493%"></stop>
            <stop stop-color="#8CAAE9" offset="100%"></stop>
        </linearGradient>
    </defs>
    <g id="Page-1" stroke="none" stroke-width="1" fill="none" fill-rule="evenodd">
        <rect id="store" fill="#EFEDED" x="625" y="311" width="480" height="309"></rect>
        <polygon id="messages" fill="#EFEDED" points="167 26 1109 26 1109 317 633 314 633 396 167 396"></polygon>
        <polygon id="logs" fill="#EFEDED" points="407 524 707 524 707 666 848 665 848 921 407 921"></polygon>
        <rect id="source" fill="#EFEDED" x="28" y="334" width="407" height="364"></rect>
        <g id="color" transform="translate(52.000000, 46.000000)">
            <ellipse id="Oval" fill="#474646" cx="473.5" cy="510.5" rx="51.5" ry="16.5"></ellipse>
            <rect id="Rectangle" fill="#8CAAE9" x="154" y="527" width="140" height="35"></rect>
            <rect id="Rectangle" fill="#8CAAE9" x="154" y="376" width="140" height="70"></rect>
            <rect id="Rectangle" fill="#FAB6B6" x="626" y="110" width="140" height="70"></rect>
            <rect id="Rectangle" fill="#DEF0BF" x="626" y="295" width="140" height="70"></rect>
            <rect id="Rectangle" fill="#DEF0BF" x="626" y="427" width="140" height="70"></rect>
            <rect id="Rectangle" fill="#DEF0BF" x="862" y="433" width="140" height="35"></rect>
            <rect id="Rectangle" fill="#FAB6B6" x="862" y="126" width="140" height="35"></rect>
            <rect id="Rectangle" fill="#F3DF94" x="154" y="204" width="140" height="35"></rect>
            <rect id="Rectangle" fill="#F3DF94" x="390" y="139" width="140" height="35"></rect>
            <rect id="Rectangle" fill="#8CAAE9" x="250" y="440" width="14" height="92"></rect>
            <rect id="Rectangle-Copy" fill="url(#linearGradient-1)" x="253" y="233" width="7" height="147"></rect>
            <rect id="Rectangle-Copy" fill="#F3DF94" x="343" y="153" width="7" height="156"></rect>
            <rect id="Rectangle" fill="#F3DF94" x="291" y="216" width="56" height="7"></rect>
            <rect id="Rectangle" fill="#F3DF94" x="343" y="153" width="49" height="7"></rect>
            <rect id="Rectangle" fill="#F3DF94" x="343" y="303" width="49" height="7"></rect>
            <rect id="Rectangle" fill="#DEF0BF" x="763" y="447" width="102" height="7"></rect>
            <rect id="Rectangle" fill="url(#linearGradient-2)" x="723" y="177" width="14" height="122"></rect>
            <rect id="Rectangle" fill="#FAB6B6" x="873" y="158" width="14" height="82"></rect>
            <rect id="Rectangle-Copy-2" fill="#DEF0BF" x="723" y="360" width="14" height="72"></rect>
            <rect id="Rectangle" fill="#FAB6B6" x="730" y="226" width="157" height="14"></rect>
            <rect id="Rectangle" fill="#F3DF94" x="513" y="6" width="14" height="140"></rect>
            <rect id="Rectangle" fill="url(#linearGradient-3)" x="940" y="1" width="14" height="134"></rect>
            <rect id="Rectangle" fill="#F3DF94" x="513" y="0" width="441" height="14"></rect>
            <rect id="Rectangle" fill="#F3DF94" x="507" y="217" width="143" height="14"></rect>
            <rect id="Rectangle" fill="#F3DF94" x="507" y="217" width="14" height="83"></rect>
            <rect id="Rectangle" fill="url(#linearGradient-4)" x="637" y="161" width="14" height="70"></rect>
            <rect id="Rectangle" fill="url(#linearGradient-5)" x="483" y="503" width="7" height="77"></rect>
            <rect id="Rectangle" fill="#B1EDF1" x="480" y="608" width="14" height="52"></rect>
            <rect id="Rectangle" fill="#B1EDF1" x="673" y="718" width="14" height="64"></rect>
            <rect id="Rectangle" fill="#B1EDF1" x="394" y="577" width="140" height="35"></rect>
            <rect id="Rectangle" fill="#B1EDF1" x="574" y="777" width="140" height="35"></rect>
            <rect id="Rectangle" fill="#B1EDF1" x="394" y="657" width="140" height="35"></rect>
            <rect id="Rectangle" fill="#B1EDF1" x="574" y="657" width="140" height="70"></rect>
            <rect id="Rectangle" fill="#B1EDF1" x="529" y="669" width="50" height="14"></rect>
            <rect id="Rectangle" fill="#8CAAE9" x="290" y="386" width="116" height="14"></rect>
            <rect id="Rectangle" fill="#8CAAE9" x="414" y="346" width="66" height="14"></rect>
            <rect id="Rectangle" fill="url(#linearGradient-6)" x="466" y="321" width="14" height="28"></rect>
            <rect id="Rectangle" fill="url(#linearGradient-7)" x="403" y="169" width="14" height="231"></rect>
            <rect id="Rectangle" fill="#F3DF94" x="390" y="290" width="140" height="35"></rect>
            <line x1="404.5" y1="324.5" x2="415.5" y2="324.5" id="Line" stroke="#474646" stroke-width="2" stroke-linecap="square"></line>
            <line x1="404.5" y1="290.5" x2="415.5" y2="290.5" id="Line" stroke="#474646" stroke-width="2" stroke-linecap="square"></line>
            <rect id="Rectangle" fill="#8CAAE9" x="0" y="396" width="140" height="35"></rect>
            <rect id="Rectangle" fill="#8CAAE9" x="135" y="407" width="23" height="7"></rect>
        </g>
        <path d="M542,549 L542,623 L586,623 L586,658 L546,658 L546,703 L586,703 L586,715 L626,715 L626,703 L766,703 L766,773 L739,773 L739,823 L766,823 L766,858 L626,858 L626,823 L725,823 L725,773 L626,773 L626,729 L586,729 L586,738 L446,738 L446,703 L532,703 L532,658 L446,658 L446,623 L535,623 L535,549 L542,549 Z M346,446 L346,492 L316,492 L316,573 L346,573 L346,608 L206,608 L206,573 L302,573 L302,492 L206,492 L206,460 L192,460 L192,477 L52,477 L52,442 L192,442 L192,453 L206,453 L206,422 L305,422 L305,285 L206,285 L206,250 L346,250 L346,262 L395,262 L395,199 L442,199 L442,185 L565,185 L565,46 L1006,46 L1006,172 L1054,172 L1054,207 L939,207 L939,286 L789,286 L789,341 L818,341 L818,411 L789,411 L789,473 L818,473 L818,493 L914,493 L914,479 L1054,479 L1054,514 L914,514 L914,500 L818,500 L818,543 L678,543 L678,473 L775,473 L775,411 L678,411 L678,341 L775,341 L775,226 L703,226 L703,277 L573,277 L573,336 L582,336 L582,371 L532,371 L532,406 L469,406 L469,446 L346,446 Z M395,356 L395,269 L346,269 L346,285 L312,285 L312,422 L346,422 L346,432 L455,432 L455,371 L442,371 L442,356 L395,356 Z M469,392 L518,392 L518,371 L469,371 L469,392 Z M442,206 L402,206 L402,349 L442,349 L442,336 L455,336 L455,220 L442,220 L442,206 Z M992,60 L579,60 L579,185 L582,185 L582,220 L469,220 L469,336 L559,336 L559,263 L689,263 L689,226 L678,226 L678,156 L818,156 L818,226 L789,226 L789,272 L925,272 L925,207 L914,207 L914,172 L992,172 L992,60 Z" id="Combined-Shape" stroke="#474646" stroke-width="2"></path>
        <g id="labels" transform="translate(52.000000, 131.000000)" fill="#000000" font-family="Futura-Medium, Futura" font-size="14" font-weight="400">
            <text id="Aggregator">
                <tspan x="154" y="433">Aggregator</tspan>
            </text>
            <text id="transform">
                <tspan x="394" y="562">transform</tspan>
            </text>
            <text id="search">
                <tspan x="574" y="562">search</tspan>
            </text>
            <text id="monitor">
                <tspan x="574" y="682">monitor</tspan>
            </text>
            <text id="logs">
                <tspan x="394" y="482">logs</tspan>
            </text>
            <text id="Source">
                <tspan x="154" y="281">Source</tspan>
            </text>
            <text id="Store">
                <tspan x="626" y="15">Store</tspan>
            </text>
            <text id="Server">
                <tspan x="626" y="200">Server</tspan>
            </text>
            <text id="Client">
                <tspan x="626" y="332">Client</tspan>
            </text>
            <text id="Images">
                <tspan x="862" y="338">Images</tspan>
            </text>
            <text id="Search">
                <tspan x="862" y="31">Search</tspan>
            </text>
            <text id="Broker">
                <tspan x="154" y="109">Broker</tspan>
            </text>
            <text id="messanges-search">
                <tspan x="389" y="44">messanges-search</tspan>
            </text>
            <text id="Cache">
                <tspan x="0" y="298">Cache</tspan>
            </text>
            <text id="messanges-search">
                <tspan x="390" y="195">messanges-search</tspan>
            </text>
        </g>
        <polygon id="Rectangle" fill="#474646" transform="translate(276.000000, 651.000000) rotate(-135.000000) translate(-276.000000, -651.000000) " points="300 627 300 675 252 675"></polygon>
        <polygon id="Rectangle" fill="#474646" transform="translate(747.000000, 555.000000) rotate(-315.000000) translate(-747.000000, -555.000000) " points="771 531 771 579 723 579"></polygon>
        <polygon id="Rectangle" fill="#474646" transform="translate(707.000000, 867.000000) rotate(-315.000000) translate(-707.000000, -867.000000) " points="731 843 731 891 683 891"></polygon>
        <g id="datasource" transform="translate(323.000000, 466.000000)">
            <path d="M26.5,1 C19.3537003,1 12.8771504,1.86102583 8.16469886,3.2836527 C5.8660466,3.97758546 3.9971984,4.7983926 2.70649932,5.72821629 C1.72435536,6.4357559 1.05902795,7.18450845 1.00000356,8.03086728 L1.00392962,42.1075811 C1.06272547,42.9260237 1.73578495,43.6484676 2.71568319,44.3370105 C4.0157849,45.2505501 5.89724489,46.0610704 8.210941,46.7474894 C12.919679,48.1444607 19.377184,49 26.5,49 C33.7041674,49 40.2277311,48.1249134 44.9493251,46.6995265 C47.2620443,46.0013472 49.1319052,45.1785042 50.4042198,44.2512168 C51.3557761,43.5577044 52,42.8278263 52,42 L51.9960704,7.89241886 C51.9372745,7.07397626 51.264215,6.35153243 50.2843168,5.66298951 C48.9842151,4.74944992 47.1027551,3.93892956 44.789059,3.25251061 C40.080321,1.85553934 33.622816,1 26.5,1 Z" id="Combined-Shape" stroke="#474646" stroke-width="2" fill="#FFFFFF"></path>
            <ellipse id="Oval" fill="#E2DEDE" cx="26.5" cy="9" rx="23.5" ry="7"></ellipse>
        </g>
        <g id="datasource" transform="translate(797.000000, 199.000000)">
            <path d="M26.5,1 C19.3537003,1 12.8771504,1.86102583 8.16469886,3.2836527 C5.8660466,3.97758546 3.9971984,4.7983926 2.70649932,5.72821629 C1.72435536,6.4357559 1.05902795,7.18450845 1.00000356,8.03086728 L1.00392962,42.1075811 C1.06272547,42.9260237 1.73578495,43.6484676 2.71568319,44.3370105 C4.0157849,45.2505501 5.89724489,46.0610704 8.210941,46.7474894 C12.919679,48.1444607 19.377184,49 26.5,49 C33.7041674,49 40.2277311,48.1249134 44.9493251,46.6995265 C47.2620443,46.0013472 49.1319052,45.1785042 50.4042198,44.2512168 C51.3557761,43.5577044 52,42.8278263 52,42 L51.9960704,7.89241886 C51.9372745,7.07397626 51.264215,6.35153243 50.2843168,5.66298951 C48.9842151,4.74944992 47.1027551,3.93892956 44.789059,3.25251061 C40.080321,1.85553934 33.622816,1 26.5,1 Z" id="Combined-Shape" stroke="#474646" stroke-width="2" fill="#FFFFFF"></path>
            <ellipse id="Oval" fill="#E2DEDE" cx="26.5" cy="9" rx="23.5" ry="7"></ellipse>
        </g>
    </g>
</svg>